<svg xmlns="http://www.w3.org/2000/svg" viewBox="-8 0 72 64" width="64" height="64" fill="none">
  <title>varoserver</title>
  <desc>V constellation logo — varoserver brand identity v1.0</desc>
  <defs>
    <radialGradient id="glow" cx="50%" cy="80%" r="60%">
      <stop offset="0%" stop-color="#89b4fa" stop-opacity="0.3"></stop>
      <stop offset="100%" stop-color="#cba6f7" stop-opacity="0"></stop>
    </radialGradient>
  </defs>

  
  <ellipse cx="28" cy="48" rx="30" ry="18" fill="url(#glow)"></ellipse>

  
  <line x1="6" y1="8" x2="11" y2="17" stroke="#cba6f7" stroke-width="1" opacity="0.55"></line>
  <line x1="11" y1="17" x2="17" y2="26" stroke="#cba6f7" stroke-width="1" opacity="0.55"></line>
  <line x1="17" y1="26" x2="23" y2="37" stroke="#89b4fa" stroke-width="1" opacity="0.55"></line>
  <line x1="23" y1="37" x2="28" y2="48" stroke="#89b4fa" stroke-width="1" opacity="0.55"></line>

  
  <line x1="50" y1="8" x2="45" y2="17" stroke="#a6e3a1" stroke-width="1" opacity="0.55"></line>
  <line x1="45" y1="17" x2="39" y2="26" stroke="#cba6f7" stroke-width="1" opacity="0.55"></line>
  <line x1="39" y1="26" x2="33" y2="37" stroke="#89b4fa" stroke-width="1" opacity="0.55"></line>
  <line x1="33" y1="37" x2="28" y2="48" stroke="#89b4fa" stroke-width="1" opacity="0.55"></line>

  
  <circle cx="11" cy="17" r="1.5" fill="#cba6f7" opacity="0.45"></circle>
  <circle cx="23" cy="37" r="1.5" fill="#89b4fa" opacity="0.45"></circle>
  <circle cx="33" cy="37" r="1.5" fill="#89b4fa" opacity="0.45"></circle>
  <circle cx="45" cy="17" r="1.5" fill="#a6e3a1" opacity="0.45"></circle>

  
  <circle cx="6" cy="8" r="3.5" fill="#cba6f7"></circle>
  <circle cx="17" cy="26" r="2.5" fill="#cba6f7" opacity="0.75"></circle>
  <circle cx="28" cy="48" r="4" fill="#89b4fa"></circle>
  <circle cx="39" cy="26" r="2.5" fill="#cba6f7" opacity="0.75"></circle>
  <circle cx="50" cy="8" r="3.5" fill="#a6e3a1"></circle>
</svg>